<svg width="24" height="24" viewBox="0 0 24 24" fill="none" xmlns="http://www.w3.org/2000/svg">
<path fill-rule="evenodd" clip-rule="evenodd" d="M14.4434 2.67072L15.1382 4.68556C15.7161 4.93326 16.2616 5.24862 16.7644 5.62524L18.8581 5.21893C19.1011 5.17164 19.3516 5.2579 19.5148 5.44437C20.3637 6.41839 21.0158 7.54735 21.4342 8.76995C21.5148 9.00466 21.4638 9.2644 21.3015 9.45175L19.9035 11.0603C19.9778 11.6846 19.9778 12.3154 19.9035 12.9387L21.3015 14.5482C21.4638 14.7356 21.5148 14.9953 21.4342 15.23C21.0158 16.4526 20.3637 17.5815 19.5148 18.5556C19.3516 18.742 19.1011 18.8283 18.8581 18.781L16.7653 18.3747C16.2616 18.7513 15.7152 19.0667 15.1382 19.3135L14.4434 21.3292C14.3627 21.5639 14.1633 21.7374 13.9202 21.7856C12.6522 22.0342 11.3479 22.0342 10.0798 21.7856C9.83676 21.7374 9.63734 21.5639 9.55661 21.3292L8.86183 19.3144C8.28389 19.0667 7.73847 18.7513 7.23565 18.3747L5.14198 18.7811C4.89894 18.8284 4.64848 18.7421 4.48521 18.5556C3.6364 17.5816 2.98428 16.4526 2.5659 15.23C2.48518 14.9953 2.53622 14.7356 2.69853 14.5482L4.09651 12.9397C4.0223 12.3154 4.0223 11.6846 4.09651 11.0612L2.69857 9.45175C2.53625 9.26436 2.48521 9.00462 2.5659 8.76995C2.98428 7.54732 3.6364 6.41839 4.48517 5.44433C4.64844 5.25786 4.8989 5.17161 5.14194 5.21893L7.23471 5.62524C7.73843 5.24862 8.2848 4.93322 8.86179 4.68647L9.55658 2.67072C9.6373 2.43604 9.83673 2.26256 10.0798 2.21432C11.3478 1.96571 12.6521 1.96571 13.9202 2.21432C14.1633 2.26256 14.3627 2.43601 14.4434 2.67072ZM12 7.89891C9.73658 7.89891 7.8989 9.73655 7.8989 12C7.8989 14.2635 9.73654 16.1011 12 16.1011C14.2635 16.1011 16.1011 14.2634 16.1011 12C16.1011 9.73655 14.2635 7.89891 12 7.89891ZM12 9.29037C13.4954 9.29037 14.7097 10.5047 14.7097 12C14.7097 13.4953 13.4954 14.7096 12 14.7096C10.5047 14.7096 9.2904 13.4954 9.2904 12C9.2904 10.5046 10.5047 9.29037 12 9.29037Z" fill="#5E69BE"/>
</svg>
