<svg width="36" height="37" viewBox="0 0 36 37" fill="none" xmlns="http://www.w3.org/2000/svg">
<path fill-rule="evenodd" clip-rule="evenodd" d="M8 0.027832C3.58172 0.027832 0 3.60955 0 8.02783V28.0278C0 32.4461 3.58172 36.0278 8 36.0278H28C32.4183 36.0278 36 32.4461 36 28.0278V8.02783C36 3.60955 32.4183 0.027832 28 0.027832H8ZM19.3429 9.73806V11.0141C23.4174 11.6582 26.5321 15.1848 26.5321 19.4401C26.5321 24.1522 22.7121 27.9722 18 27.9722C13.2879 27.9722 9.46787 24.1522 9.46787 19.4401C9.46787 15.1848 12.5833 11.6582 16.6574 11.0138V9.7381H15.1029C14.9075 9.7381 14.749 9.57955 14.749 9.38421V8.38172C14.749 8.18638 14.9075 8.02783 15.1029 8.02783H20.6628C20.8586 8.02783 21.0167 8.18638 21.0167 8.38172V9.38417C21.0167 9.57951 20.8585 9.73806 20.6628 9.73806H19.3429ZM11.119 19.4401C11.119 23.2342 14.2058 26.321 18 26.321C21.7945 26.321 24.8809 23.2346 24.8809 19.4401C24.8809 15.6459 21.7945 12.5591 18 12.5591C14.2058 12.5591 11.119 15.6459 11.119 19.4401ZM19.8487 13.5876C18.8016 13.236 17.8828 14.1634 17.8828 15.2679V17.4401C17.8828 18.5447 18.7783 19.4401 19.8828 19.4401H22.055C23.1596 19.4401 24.0869 18.5214 23.7353 17.4742C23.1217 15.6468 21.6762 14.2012 19.8487 13.5876ZM18.9852 23.5464H17.8829V25.3745H18.9852V23.5464ZM13.9952 18.5735H12.1594V19.9497H13.9952V18.5735ZM23.2701 22.4519L22.2658 21.8719L22.5408 21.3952L23.5171 21.9593C23.4417 22.1274 23.3593 22.2919 23.2701 22.4519ZM21.1363 24.6844L20.4409 23.4894L20.9165 23.2127L21.5925 24.3727C21.4452 24.4834 21.2931 24.5871 21.1363 24.6844ZM14.9797 24.4108L15.4553 24.6879L16.1535 23.4898L15.6776 23.213L14.9797 24.4108ZM12.8516 22.0902L13.1265 22.5669L14.3297 21.8722L14.0547 21.3952L12.8516 22.0902ZM12.8508 16.4333L14.0536 17.1283L14.3289 16.6516L13.1261 15.9566L12.8508 16.4333ZM14.979 14.1126L15.6768 15.3105L16.1528 15.0334L15.4549 13.8355L14.979 14.1126ZM10.5019 13.9024C9.83873 13.1848 9.88261 12.0652 10.6003 11.402C11.3179 10.7389 12.4372 10.7827 13.1007 11.5004L10.5019 13.9024Z" fill="#6A5AE6"/>
</svg>
