<svg width="24" height="24" viewBox="0 0 24 24" fill="none" xmlns="http://www.w3.org/2000/svg">
<path d="M19.6281 7.90002V10.3884L21.2083 9.21443L19.6281 7.90002Z" fill="#5E69BE"/>
<path d="M12.9607 2.37651C12.4038 1.91496 11.5961 1.90995 11.0392 2.37149L10.4021 2.91331H13.6078L12.9607 2.37651Z" fill="#5E69BE"/>
<path d="M13.4976 16.1979C13.0661 16.5189 12.5444 16.6945 12.0076 16.6895C11.4708 16.6895 10.944 16.5189 10.5126 16.1979L2.52078 10.2329V20.4622C2.51576 21.2899 3.183 21.9672 4.01077 21.9722H19.9893C20.8171 21.9672 21.4843 21.2899 21.4793 20.4622V10.2329L13.4976 16.1979Z" fill="#5E69BE"/>
<path d="M2.79663 9.21441L4.32676 10.3532V7.94516L2.79663 9.21441Z" fill="#5E69BE"/>
<path d="M5.3302 3.91669V11.1008L11.0995 15.3952C11.6363 15.7865 12.3738 15.7865 12.9106 15.3952L18.6248 11.1359V3.91669H5.3302ZM8.89214 7.93014H11.6012C11.8771 7.93014 12.1029 8.15589 12.1029 8.43182C12.1029 8.70774 11.8771 8.9335 11.6012 8.9335H8.89214C8.61621 8.9335 8.39046 8.70774 8.39046 8.43182C8.39046 8.15589 8.61621 7.93014 8.89214 7.93014ZM15.113 11.4419H8.89214C8.61621 11.4419 8.39046 11.2161 8.39046 10.9402C8.39046 10.6643 8.61621 10.4385 8.89214 10.4385H15.113C15.3889 10.4385 15.6147 10.6643 15.6147 10.9402C15.6147 11.2161 15.3889 11.4419 15.113 11.4419Z" fill="#5E69BE"/>
</svg>
