<svg width="36" height="37" viewBox="0 0 36 37" fill="none" xmlns="http://www.w3.org/2000/svg">
<path fill-rule="evenodd" clip-rule="evenodd" d="M8 0.027832C3.58172 0.027832 0 3.60955 0 8.02783V28.0278C0 32.4461 3.58172 36.0278 8 36.0278H28C32.4183 36.0278 36 32.4461 36 28.0278V8.02783C36 3.60955 32.4183 0.027832 28 0.027832H8ZM21.1382 10.6855L20.4434 8.67071C20.3627 8.436 20.1633 8.26255 19.9202 8.21431C18.6521 7.9657 17.3478 7.9657 16.0797 8.21431C15.8367 8.26255 15.6373 8.43604 15.5565 8.67071L14.8618 10.6865C14.2848 10.9332 13.7384 11.2486 13.2347 11.6252L11.1419 11.2189C10.8989 11.1716 10.6484 11.2579 10.4851 11.4443C9.63637 12.4184 8.98425 13.5473 8.56587 14.7699C8.48518 15.0046 8.53622 15.2644 8.69854 15.4517L10.0965 17.0612C10.0223 17.6846 10.0223 18.3154 10.0965 18.9397L8.6985 20.5482C8.53619 20.7356 8.48515 20.9953 8.56587 21.23C8.98425 22.4526 9.63637 23.5816 10.4852 24.5556C10.6484 24.7421 10.8989 24.8284 11.142 24.7811L13.2356 24.3746C13.7384 24.7513 14.2839 25.0667 14.8618 25.3144L15.5566 27.3292C15.6373 27.5639 15.8367 27.7374 16.0798 27.7856C17.3479 28.0342 18.6521 28.0342 19.9202 27.7856C20.1633 27.7374 20.3627 27.5639 20.4434 27.3292L21.1382 25.3135C21.7152 25.0667 22.2616 24.7513 22.7653 24.3747L24.858 24.781C25.1011 24.8283 25.3515 24.742 25.5148 24.5556C26.3636 23.5815 27.0157 22.4526 27.4341 21.23C27.5148 20.9953 27.4638 20.7356 27.3014 20.5482L25.9035 18.9387C25.9777 18.3154 25.9777 17.6846 25.9035 17.0603L27.3014 15.4517C27.4638 15.2644 27.5148 15.0047 27.4341 14.7699C27.0157 13.5473 26.3636 12.4184 25.5148 11.4444C25.3515 11.2579 25.1011 11.1716 24.858 11.2189L22.7644 11.6252C22.2616 11.2486 21.7161 10.9332 21.1382 10.6855ZM13.8989 18C13.8989 15.7365 15.7365 13.8989 18 13.8989C20.2634 13.8989 22.1011 15.7365 22.1011 18C22.1011 20.2634 20.2635 22.1011 18 22.1011C15.7365 22.1011 13.8989 20.2635 13.8989 18ZM20.7096 18C20.7096 16.5047 19.4954 15.2904 18 15.2904C16.5046 15.2904 15.2904 16.5046 15.2904 18C15.2904 19.4954 16.5046 20.7096 18 20.7096C19.4954 20.7096 20.7096 19.4953 20.7096 18Z" fill="#6A5AE6"/>
</svg>
