<svg width="240" height="241" viewBox="0 0 240 241" fill="none" xmlns="http://www.w3.org/2000/svg">
<path fill-rule="evenodd" clip-rule="evenodd" d="M19.0252 65.5449L28.6428 71.088C28.9311 71.2546 29.2494 71.3628 29.5796 71.4065C29.9097 71.4502 30.2453 71.4285 30.5671 71.3428C30.8889 71.257 31.1906 71.1087 31.455 70.9065C31.7195 70.7043 31.9414 70.452 32.1082 70.1641C32.275 69.8763 32.3834 69.5584 32.4272 69.2287C32.4709 68.899 32.4493 68.5639 32.3633 68.2425C32.2774 67.9212 32.129 67.6199 31.9265 67.3558C31.724 67.0918 31.4713 66.8702 31.183 66.7036L21.5655 61.1553C20.9845 60.8482 20.3069 60.778 19.6751 60.9594C19.0433 61.1408 18.5066 61.5597 18.1777 62.1281C17.8488 62.6964 17.7533 63.3699 17.9114 64.0071C18.0694 64.6443 18.4687 65.1955 19.0252 65.5449Z" fill="#6D7C9E"/>
<path fill-rule="evenodd" clip-rule="evenodd" d="M208.481 174.784L218.098 180.327C218.387 180.497 218.706 180.608 219.038 180.654C219.369 180.7 219.707 180.68 220.031 180.594C220.354 180.509 220.658 180.361 220.924 180.158C221.19 179.955 221.413 179.702 221.581 179.412C221.748 179.123 221.857 178.803 221.9 178.471C221.943 178.14 221.919 177.803 221.831 177.48C221.743 177.158 221.592 176.856 221.386 176.592C221.181 176.328 220.925 176.107 220.633 175.943L211.016 170.394C210.433 170.059 209.74 169.968 209.09 170.142C208.44 170.317 207.887 170.741 207.55 171.324C207.214 171.906 207.123 172.597 207.298 173.246C207.472 173.895 207.898 174.448 208.481 174.784Z" fill="#6D7C9E"/>
<path fill-rule="evenodd" clip-rule="evenodd" d="M60.1664 22.6093L65.7174 32.2132C65.8772 32.5147 66.0962 32.7808 66.3614 32.9958C66.6265 33.2108 66.9324 33.3702 67.2606 33.4645C67.5889 33.5587 67.9328 33.5859 68.2718 33.5444C68.6108 33.5029 68.9379 33.3936 69.2337 33.2229C69.5294 33.0523 69.7876 32.8238 69.9929 32.5512C70.1982 32.2786 70.3463 31.9675 70.4284 31.6364C70.5105 31.3054 70.525 30.9612 70.4708 30.6244C70.4167 30.2877 70.2951 29.9653 70.1133 29.6765L64.5623 20.0727C64.2124 19.5169 63.6605 19.1182 63.0224 18.9604C62.3843 18.8026 61.7098 18.8979 61.1406 19.2263C60.5715 19.5548 60.1519 20.0908 59.9703 20.7217C59.7886 21.3525 59.8589 22.0292 60.1664 22.6093Z" fill="#6D7C9E"/>
<path fill-rule="evenodd" clip-rule="evenodd" d="M169.561 211.791L175.117 221.394C175.284 221.683 175.505 221.935 175.77 222.138C176.034 222.341 176.335 222.489 176.657 222.576C176.979 222.662 177.315 222.684 177.645 222.641C177.975 222.598 178.294 222.49 178.583 222.324C178.871 222.157 179.124 221.936 179.327 221.672C179.53 221.408 179.679 221.107 179.766 220.786C179.852 220.464 179.874 220.129 179.831 219.799C179.788 219.469 179.68 219.151 179.513 218.863L173.957 209.259C173.621 208.677 173.067 208.252 172.417 208.078C171.767 207.904 171.074 207.994 170.491 208.33C169.908 208.666 169.483 209.219 169.308 209.868C169.134 210.517 169.225 211.208 169.561 211.791Z" fill="#6D7C9E"/>
<path fill-rule="evenodd" clip-rule="evenodd" d="M218.098 61.1552L208.481 66.7036C208.189 66.8681 207.933 67.0887 207.728 67.3526C207.522 67.6165 207.371 67.9185 207.283 68.241C207.195 68.5636 207.172 68.9004 207.215 69.232C207.258 69.5635 207.366 69.8833 207.533 70.1728C207.701 70.4624 207.924 70.7159 208.19 70.9189C208.456 71.1218 208.76 71.2701 209.084 71.3552C209.407 71.4403 209.745 71.4605 210.076 71.4146C210.408 71.3687 210.727 71.2577 211.016 71.088L220.633 65.5448C221.216 65.2092 221.642 64.656 221.816 64.007C221.991 63.358 221.9 62.6664 221.564 62.0843C221.228 61.5022 220.674 61.0773 220.024 60.9031C219.374 60.7288 218.681 60.8195 218.098 61.1552Z" fill="#6D7C9E"/>
<path fill-rule="evenodd" clip-rule="evenodd" d="M28.6428 170.379L19.0252 175.927C18.443 176.263 18.0184 176.817 17.8449 177.466C17.6714 178.115 17.7632 178.806 18.1001 179.388C18.4369 179.969 18.9913 180.393 19.6412 180.566C20.2911 180.739 20.9833 180.648 21.5655 180.311L31.1831 174.768C31.7396 174.419 32.1389 173.868 32.2969 173.231C32.455 172.593 32.3595 171.92 32.0306 171.351C31.7017 170.783 31.1649 170.364 30.5332 170.183C29.9014 170.001 29.2238 170.072 28.6428 170.379Z" fill="#6D7C9E"/>
<path fill-rule="evenodd" clip-rule="evenodd" d="M175.102 20.0727L169.561 29.6818C169.379 29.9705 169.258 30.2929 169.204 30.6297C169.149 30.9664 169.164 31.3106 169.246 31.6417C169.328 31.9727 169.476 32.2839 169.681 32.5565C169.887 32.829 170.145 33.0575 170.441 33.2281C170.736 33.3988 171.064 33.5081 171.403 33.5496C171.742 33.5911 172.085 33.564 172.414 33.4697C172.742 33.3755 173.048 33.216 173.313 33.0011C173.578 32.7861 173.797 32.5199 173.957 32.2184L179.492 22.6093C179.8 22.0292 179.87 21.3525 179.688 20.7217C179.507 20.0908 179.087 19.5548 178.518 19.2263C177.949 18.8979 177.274 18.8026 176.636 18.9604C175.998 19.1182 175.446 19.5169 175.096 20.0727H175.102Z" fill="#6D7C9E"/>
<path fill-rule="evenodd" clip-rule="evenodd" d="M65.7175 209.259L60.1665 218.863C60 219.151 59.892 219.469 59.8487 219.799C59.8054 220.129 59.8275 220.464 59.9139 220.786C60.0003 221.107 60.1493 221.408 60.3522 221.672C60.5552 221.936 60.8082 222.157 61.0969 222.324C61.3855 222.49 61.7041 222.598 62.0344 222.641C62.3648 222.684 62.7005 222.662 63.0223 222.576C63.3441 222.489 63.6457 222.341 63.9099 222.138C64.1742 221.935 64.3959 221.683 64.5623 221.394L70.1133 211.791C70.2798 211.502 70.3877 211.184 70.4311 210.854C70.4744 210.524 70.4523 210.189 70.3659 209.868C70.2795 209.547 70.1305 209.245 69.9275 208.981C69.7246 208.718 69.4716 208.496 69.1829 208.33C68.8943 208.164 68.5757 208.056 68.2453 208.013C67.915 207.969 67.5793 207.992 67.2575 208.078C66.9357 208.164 66.6341 208.313 66.3698 208.516C66.1056 208.718 65.8839 208.971 65.7175 209.259Z" fill="#6D7C9E"/>
<path d="M109.577 29.7336V10.9016L105.257 13.5416V9.28564L109.577 6.69364H113.513V29.7336H109.577ZM118.668 29.7016V26.3416L128.524 17.5576C129.292 16.875 129.826 16.2296 130.124 15.6216C130.423 15.0136 130.572 14.427 130.572 13.8616C130.572 13.0936 130.407 12.411 130.076 11.8136C129.746 11.2056 129.287 10.7256 128.7 10.3736C128.124 10.0216 127.458 9.84564 126.7 9.84564C125.9 9.84564 125.191 10.0323 124.572 10.4056C123.964 10.7683 123.49 11.2536 123.148 11.8616C122.807 12.4696 122.647 13.1256 122.668 13.8296H118.7C118.7 12.2936 119.042 10.955 119.724 9.81364C120.418 8.67231 121.367 7.78697 122.572 7.15764C123.788 6.52831 125.191 6.21364 126.78 6.21364C128.252 6.21364 129.575 6.54431 130.748 7.20564C131.922 7.85631 132.844 8.76297 133.516 9.92564C134.188 11.0776 134.524 12.4056 134.524 13.9096C134.524 15.0083 134.375 15.931 134.076 16.6776C133.778 17.4243 133.33 18.1123 132.732 18.7416C132.146 19.371 131.415 20.0696 130.54 20.8376L123.548 27.0296L123.196 26.0696H134.524V29.7016H118.668Z" fill="#6D7C9E"/>
<path d="M229.832 133.165C228.68 133.165 227.592 132.941 226.568 132.493C225.544 132.045 224.653 131.411 223.896 130.589C223.149 129.768 222.611 128.797 222.28 127.677L226.008 126.669C226.275 127.587 226.76 128.296 227.464 128.797C228.179 129.288 228.963 129.528 229.816 129.517C230.573 129.517 231.251 129.341 231.848 128.989C232.445 128.637 232.915 128.163 233.256 127.565C233.597 126.957 233.768 126.28 233.768 125.533C233.768 124.392 233.4 123.437 232.664 122.669C231.928 121.901 230.979 121.517 229.816 121.517C229.464 121.517 229.117 121.565 228.776 121.661C228.445 121.757 228.125 121.891 227.816 122.061L226.056 119.021L233.8 112.397L234.136 113.325H223.176V109.693H237.304V113.341L231.08 119.325L231.048 118.189C232.445 118.285 233.635 118.675 234.616 119.357C235.608 120.04 236.365 120.92 236.888 121.997C237.421 123.075 237.688 124.253 237.688 125.533C237.688 126.984 237.331 128.285 236.616 129.437C235.912 130.589 234.963 131.501 233.768 132.173C232.584 132.835 231.272 133.165 229.832 133.165Z" fill="#6D7C9E"/>
<path d="M9.68 109.245C11.184 109.245 12.5387 109.603 13.744 110.317C14.9493 111.021 15.8987 112.003 16.592 113.261C17.296 114.509 17.648 115.949 17.648 117.581V124.605C17.648 126.344 17.296 127.864 16.592 129.165C15.8987 130.456 14.9227 131.453 13.664 132.157C12.4053 132.861 10.9333 133.213 9.248 133.213C8.08533 133.213 6.98667 133.016 5.952 132.621C4.91733 132.216 3.98933 131.597 3.168 130.765L5.936 128.061C6.352 128.541 6.848 128.92 7.424 129.197C8.01067 129.464 8.61867 129.597 9.248 129.597C10.144 129.597 10.928 129.389 11.6 128.973C12.272 128.547 12.7947 127.997 13.168 127.325C13.5413 126.643 13.728 125.912 13.728 125.133V121.309L14.416 122.077C13.7653 122.845 12.976 123.448 12.048 123.885C11.12 124.312 10.144 124.525 9.12 124.525C7.68 124.525 6.4 124.195 5.28 123.533C4.17067 122.872 3.296 121.976 2.656 120.845C2.02667 119.704 1.712 118.413 1.712 116.973C1.712 115.533 2.07467 114.232 2.8 113.069C3.52533 111.896 4.49067 110.968 5.696 110.285C6.912 109.592 8.24 109.245 9.68 109.245ZM9.68 112.925C8.93333 112.925 8.25067 113.107 7.632 113.469C7.01333 113.832 6.52267 114.323 6.16 114.941C5.79733 115.549 5.616 116.227 5.616 116.973C5.616 117.72 5.792 118.403 6.144 119.021C6.50667 119.64 6.992 120.131 7.6 120.493C8.21867 120.856 8.90133 121.037 9.648 121.037C10.3947 121.037 11.0773 120.856 11.696 120.493C12.3147 120.131 12.8053 119.64 13.168 119.021C13.5413 118.403 13.728 117.72 13.728 116.973C13.728 116.248 13.5467 115.581 13.184 114.973C12.8213 114.355 12.3307 113.859 11.712 113.485C11.104 113.112 10.4267 112.925 9.68 112.925Z" fill="#6D7C9E"/>
<path d="M119.771 236.213C118.267 236.213 116.912 235.861 115.707 235.157C114.512 234.443 113.563 233.456 112.859 232.197C112.155 230.939 111.803 229.493 111.803 227.861V220.853C111.803 219.104 112.149 217.584 112.843 216.293C113.547 215.003 114.528 214.005 115.787 213.301C117.056 212.597 118.528 212.245 120.203 212.245C121.365 212.245 122.469 212.443 123.515 212.837C124.56 213.221 125.488 213.84 126.299 214.693L123.515 217.397C123.109 216.917 122.613 216.539 122.027 216.261C121.451 215.984 120.843 215.845 120.203 215.845C119.307 215.845 118.523 216.059 117.851 216.485C117.179 216.901 116.656 217.451 116.283 218.133C115.92 218.816 115.739 219.547 115.739 220.325V224.149L115.035 223.381C115.696 222.613 116.491 222.016 117.419 221.589C118.347 221.152 119.317 220.933 120.331 220.933C121.781 220.933 123.061 221.264 124.171 221.925C125.28 222.576 126.155 223.472 126.795 224.613C127.435 225.744 127.755 227.035 127.755 228.485C127.755 229.925 127.387 231.232 126.651 232.405C125.925 233.568 124.96 234.496 123.755 235.189C122.549 235.872 121.221 236.213 119.771 236.213ZM119.771 232.517C120.517 232.517 121.2 232.341 121.819 231.989C122.437 231.627 122.928 231.141 123.291 230.533C123.664 229.915 123.851 229.232 123.851 228.485C123.851 227.739 123.669 227.056 123.307 226.437C122.944 225.819 122.453 225.328 121.835 224.965C121.227 224.592 120.549 224.405 119.803 224.405C119.056 224.405 118.373 224.592 117.755 224.965C117.136 225.328 116.645 225.819 116.283 226.437C115.92 227.056 115.739 227.739 115.739 228.485C115.739 229.211 115.915 229.883 116.267 230.501C116.629 231.109 117.115 231.6 117.723 231.973C118.341 232.336 119.024 232.517 119.771 232.517Z" fill="#6D7C9E"/>
</svg>
