<svg width="24" height="24" viewBox="0 0 24 24" fill="none" xmlns="http://www.w3.org/2000/svg">
<path d="M13.3429 5.01412V3.73806H14.6629C14.8585 3.73806 15.0167 3.57951 15.0167 3.38417V2.38172C15.0167 2.18638 14.8586 2.02783 14.6629 2.02783H9.1029C8.90757 2.02783 8.74902 2.18638 8.74902 2.38172V3.38421C8.74902 3.57955 8.90757 3.7381 9.1029 3.7381H10.6575V5.01381C6.58335 5.65816 3.4679 9.18478 3.4679 13.4401C3.4679 18.1522 7.2879 21.9722 12 21.9722C16.7121 21.9722 20.5321 18.1522 20.5321 13.4401C20.5321 9.18478 17.4174 5.65816 13.3429 5.01412ZM12 20.321C8.20581 20.321 5.11904 17.2342 5.11904 13.4401C5.11904 9.64593 8.20585 6.55913 12 6.55913C15.7945 6.55913 18.8809 9.64593 18.8809 13.4401C18.8809 17.2346 15.7945 20.321 12 20.321Z" fill="#5E69BE"/>
<path d="M13.8486 7.58757C12.8015 7.23599 11.8828 8.16334 11.8828 9.26791V11.4401C11.8828 12.5447 12.7782 13.4401 13.8828 13.4401H16.055C17.1595 13.4401 18.0869 12.5214 17.7353 11.4742C17.1217 9.64674 15.6761 8.20117 13.8486 7.58757Z" fill="#5E69BE"/>
<path d="M11.8828 17.5464H12.9851V19.3745H11.8828V17.5464ZM6.15935 12.5735H7.99521V13.9497H6.15935V12.5735ZM16.2658 15.8719L17.2701 16.4519C17.3592 16.2919 17.4417 16.1274 17.5171 15.9593L16.5408 15.3952L16.2658 15.8719ZM14.4409 17.4894L15.1363 18.6844C15.293 18.5871 15.4452 18.4834 15.5924 18.3727L14.9165 17.2127L14.4409 17.4894ZM9.45529 18.6879L8.97968 18.4108L9.67753 17.213L10.1535 17.4897L9.45529 18.6879ZM7.12649 16.5669L6.85153 16.0902L8.05468 15.3952L8.32963 15.8722L7.12649 16.5669ZM8.05359 11.1283L6.85079 10.4333L7.1261 9.95662L8.32889 10.6516L8.05359 11.1283ZM9.67679 9.31045L8.97894 8.11262L9.45489 7.83553L10.1527 9.03336L9.67679 9.31045ZM4.60023 5.40199C3.88257 6.06514 3.83869 7.18478 4.50184 7.90244L7.10063 5.50037C6.43714 4.78272 5.31784 4.73884 4.60023 5.40199Z" fill="#5E69BE"/>
</svg>
