<svg width="80" height="20" viewBox="0 0 80 20" fill="none" xmlns="http://www.w3.org/2000/svg">
<rect width="22" height="20" rx="4" fill="#111F48"/>
<path d="M7.13437 15V7.135L5.37287 8.2075V6.693L7.13437 5.64H8.51887V15H7.13437ZM10.4272 14.9935L10.4337 13.7845L14.5092 10.1315C14.8386 9.84117 15.0617 9.56383 15.1787 9.2995C15.3001 9.03517 15.3607 8.77083 15.3607 8.5065C15.3607 8.17283 15.2871 7.87383 15.1397 7.6095C14.9924 7.34083 14.7887 7.1285 14.5287 6.9725C14.2687 6.8165 13.9697 6.7385 13.6317 6.7385C13.2851 6.7385 12.9752 6.82083 12.7022 6.9855C12.4336 7.14583 12.2234 7.36033 12.0717 7.629C11.9201 7.89767 11.8464 8.188 11.8507 8.5H10.4597C10.4597 7.89333 10.5962 7.3625 10.8692 6.9075C11.1466 6.44817 11.5257 6.09067 12.0067 5.835C12.4877 5.575 13.0381 5.445 13.6577 5.445C14.2471 5.445 14.7757 5.57933 15.2437 5.848C15.7117 6.11233 16.0801 6.47633 16.3487 6.94C16.6217 7.40367 16.7582 7.93233 16.7582 8.526C16.7582 8.955 16.7019 9.319 16.5892 9.618C16.4766 9.917 16.3076 10.1943 16.0822 10.45C15.8569 10.7057 15.5752 10.983 15.2372 11.282L12.0912 14.09L11.9417 13.7H16.7582V14.9935H10.4272Z" fill="white"/>
<path d="M35.8177 15L35.8242 10.6255C35.8242 10.1185 35.6942 9.72417 35.4342 9.4425C35.1742 9.1565 34.8318 9.0135 34.4072 9.0135C34.1472 9.0135 33.9088 9.07417 33.6922 9.1955C33.4798 9.3125 33.3065 9.49017 33.1722 9.7285C33.0422 9.9625 32.9772 10.2572 32.9772 10.6125L32.3207 10.281C32.312 9.787 32.416 9.35367 32.6327 8.981C32.8537 8.60833 33.1527 8.32017 33.5297 8.1165C33.9067 7.9085 34.3292 7.8045 34.7972 7.8045C35.5555 7.8045 36.1427 8.032 36.5587 8.487C36.9747 8.942 37.1827 9.5465 37.1827 10.3005L37.1762 15H35.8177ZM27.4002 15V7.98H28.6092V10.008H28.7652V15H27.4002ZM31.6122 15L31.6187 10.6515C31.6187 10.1402 31.4887 9.73933 31.2287 9.449C30.973 9.15867 30.6285 9.0135 30.1952 9.0135C29.7662 9.0135 29.4195 9.16083 29.1552 9.4555C28.8952 9.75017 28.7652 10.1358 28.7652 10.6125L28.1152 10.1965C28.1152 9.73717 28.2257 9.32767 28.4467 8.968C28.6677 8.60833 28.9667 8.3245 29.3437 8.1165C29.7207 7.9085 30.1475 7.8045 30.6242 7.8045C31.1225 7.8045 31.5472 7.91067 31.8982 8.123C32.2492 8.331 32.5157 8.6235 32.6977 9.0005C32.884 9.3775 32.9772 9.81517 32.9772 10.3135L32.9707 15H31.6122ZM38.7005 6.8295V5.51H40.059V6.8295H38.7005ZM38.7005 15V7.98H40.059V15H38.7005ZM46.638 15V11.5485C46.638 11.2755 46.6141 10.996 46.5665 10.71C46.5231 10.4197 46.4365 10.151 46.3065 9.904C46.1808 9.657 46.001 9.45767 45.767 9.306C45.5373 9.15433 45.2361 9.0785 44.8635 9.0785C44.6208 9.0785 44.3911 9.11967 44.1745 9.202C43.9578 9.28 43.7671 9.40783 43.6025 9.5855C43.4421 9.76317 43.3143 9.99717 43.219 10.2875C43.128 10.5778 43.0825 10.931 43.0825 11.347L42.2375 11.0285C42.2375 10.3915 42.3566 9.83033 42.595 9.345C42.8333 8.85533 43.1756 8.474 43.622 8.201C44.0683 7.928 44.6078 7.7915 45.2405 7.7915C45.7258 7.7915 46.1331 7.8695 46.4625 8.0255C46.7918 8.1815 47.0583 8.38733 47.262 8.643C47.47 8.89433 47.6281 9.1695 47.7365 9.4685C47.8448 9.7675 47.9185 10.06 47.9575 10.346C47.9965 10.632 48.016 10.8833 48.016 11.1V15H46.638ZM41.7045 15V7.98H42.92V10.008H43.0825V15H41.7045ZM52.0545 15.1885C51.5692 15.1885 51.1619 15.1105 50.8325 14.9545C50.5032 14.7985 50.2345 14.5948 50.0265 14.3435C49.8229 14.0878 49.6669 13.8105 49.5585 13.5115C49.4502 13.2125 49.3765 12.92 49.3375 12.634C49.2985 12.348 49.279 12.0967 49.279 11.88V7.98H50.657V11.4315C50.657 11.7045 50.6787 11.9862 50.722 12.2765C50.7697 12.5625 50.8564 12.829 50.982 13.076C51.112 13.323 51.2919 13.5223 51.5215 13.674C51.7555 13.8257 52.0589 13.9015 52.4315 13.9015C52.6742 13.9015 52.9039 13.8625 53.1205 13.7845C53.3372 13.7022 53.5257 13.5722 53.686 13.3945C53.8507 13.2168 53.9785 12.9828 54.0695 12.6925C54.1649 12.4022 54.2125 12.049 54.2125 11.633L55.0575 11.9515C55.0575 12.5885 54.9384 13.1518 54.7 13.6415C54.4617 14.1268 54.1194 14.506 53.673 14.779C53.2267 15.052 52.6872 15.1885 52.0545 15.1885ZM54.375 15V12.972H54.2125V7.98H55.584V15H54.375ZM61.1241 15C60.6821 15.0867 60.2487 15.1235 59.8241 15.1105C59.3994 15.0975 59.0202 15.0152 58.6866 14.8635C58.3529 14.7118 58.1016 14.4735 57.9326 14.1485C57.7809 13.8582 57.6986 13.5635 57.6856 13.2645C57.6769 12.9612 57.6726 12.6188 57.6726 12.2375V6.03H59.0376V12.1725C59.0376 12.4542 59.0397 12.699 59.0441 12.907C59.0527 13.115 59.0982 13.2905 59.1806 13.4335C59.3366 13.7022 59.5836 13.856 59.9216 13.895C60.2639 13.9297 60.6647 13.9145 61.1241 13.8495V15ZM56.3271 9.072V7.98H61.1241V9.072H56.3271ZM65.1003 15.195C64.4026 15.195 63.7894 15.0433 63.2608 14.74C62.7364 14.4323 62.3269 14.0055 62.0323 13.4595C61.7419 12.9092 61.5968 12.2722 61.5968 11.5485C61.5968 10.7815 61.7398 10.1163 62.0258 9.553C62.3161 8.98967 62.7191 8.55417 63.2348 8.2465C63.7504 7.93883 64.3506 7.785 65.0353 7.785C65.7503 7.785 66.3591 7.95183 66.8618 8.2855C67.3644 8.61483 67.7393 9.085 67.9863 9.696C68.2376 10.307 68.3373 11.0328 68.2853 11.8735H66.9268V11.3795C66.9181 10.5648 66.7621 9.9625 66.4588 9.5725C66.1598 9.1825 65.7026 8.9875 65.0873 8.9875C64.4069 8.9875 63.8956 9.202 63.5533 9.631C63.2109 10.06 63.0398 10.6797 63.0398 11.49C63.0398 12.2613 63.2109 12.8593 63.5533 13.284C63.8956 13.7043 64.3896 13.9145 65.0353 13.9145C65.4599 13.9145 65.8261 13.8192 66.1338 13.6285C66.4458 13.4335 66.6884 13.1562 66.8618 12.7965L68.1943 13.219C67.9213 13.8473 67.5074 14.3348 66.9528 14.6815C66.3981 15.0238 65.7806 15.195 65.1003 15.195ZM62.5978 11.8735V10.814H67.6093V11.8735H62.5978ZM72.1281 15.1885C71.2744 15.1885 70.5789 15 70.0416 14.623C69.5043 14.246 69.1749 13.7152 69.0536 13.0305L70.4446 12.816C70.5313 13.18 70.7306 13.4682 71.0426 13.6805C71.3589 13.8885 71.7511 13.9925 72.2191 13.9925C72.6438 13.9925 72.9753 13.9058 73.2136 13.7325C73.4563 13.5592 73.5776 13.3208 73.5776 13.0175C73.5776 12.8398 73.5343 12.6968 73.4476 12.5885C73.3653 12.4758 73.1898 12.3697 72.9211 12.27C72.6524 12.1703 72.2429 12.0468 71.6926 11.8995C71.0903 11.7435 70.6114 11.5767 70.2561 11.399C69.9051 11.217 69.6538 11.0068 69.5021 10.7685C69.3548 10.5258 69.2811 10.2333 69.2811 9.891C69.2811 9.46633 69.3938 9.09583 69.6191 8.7795C69.8444 8.46317 70.1608 8.21833 70.5681 8.045C70.9798 7.87167 71.4608 7.785 72.0111 7.785C72.5484 7.785 73.0273 7.8695 73.4476 8.0385C73.8679 8.2075 74.2081 8.448 74.4681 8.76C74.7281 9.06767 74.8841 9.4295 74.9361 9.8455L73.5451 10.099C73.4974 9.761 73.3393 9.4945 73.0706 9.2995C72.8019 9.1045 72.4531 8.99833 72.0241 8.981C71.6124 8.96367 71.2788 9.033 71.0231 9.189C70.7674 9.34067 70.6396 9.55083 70.6396 9.8195C70.6396 9.9755 70.6873 10.1077 70.7826 10.216C70.8823 10.3243 71.0729 10.4283 71.3546 10.528C71.6363 10.6277 72.0523 10.7468 72.6026 10.8855C73.1919 11.0372 73.6599 11.2062 74.0066 11.3925C74.3533 11.5745 74.6003 11.7933 74.7476 12.049C74.8993 12.3003 74.9751 12.6058 74.9751 12.9655C74.9751 13.6588 74.7216 14.2027 74.2146 14.597C73.7119 14.9913 73.0164 15.1885 72.1281 15.1885Z" fill="#6D7C9E"/>
<rect x="0.5" y="0.5" width="79" height="19" rx="3.5" stroke="#6D7C9E"/>
</svg>
