<svg width="36" height="37" viewBox="0 0 36 37" fill="none" xmlns="http://www.w3.org/2000/svg">
<path fill-rule="evenodd" clip-rule="evenodd" d="M8 0.027832C3.58172 0.027832 0 3.60955 0 8.02783V28.0278C0 32.4461 3.58172 36.0278 8 36.0278H28C32.4183 36.0278 36 32.4461 36 28.0278V8.02783C36 3.60955 32.4183 0.027832 28 0.027832H8ZM25.6281 16.3884V13.9L27.2084 15.2144L25.6281 16.3884ZM18.9607 8.37651C18.4038 7.91496 17.5961 7.90995 17.0393 8.37149L16.4021 8.91331H19.6079L18.9607 8.37651ZM18.0075 22.6895C18.5443 22.6945 19.0661 22.5189 19.4975 22.1979L27.4793 16.2329V26.4622C27.4843 27.2899 26.817 27.9672 25.9893 27.9722H10.0107C9.18295 27.9672 8.51571 27.2899 8.52073 26.4622V16.2329L16.5125 22.1979C16.944 22.5189 17.4707 22.6895 18.0075 22.6895ZM8.79666 15.2144L10.3268 16.3532V13.9452L8.79666 15.2144ZM11.3302 17.1008V9.91669H24.6247V17.1359L18.9106 21.3952C18.3738 21.7865 17.6363 21.7865 17.0995 21.3952L11.3302 17.1008ZM17.6012 13.9301H14.8921C14.6162 13.9301 14.3904 14.1559 14.3904 14.4318C14.3904 14.7077 14.6162 14.9335 14.8921 14.9335H17.6012C17.8771 14.9335 18.1028 14.7077 18.1028 14.4318C18.1028 14.1559 17.8771 13.9301 17.6012 13.9301ZM14.8921 17.4419H21.1129C21.3889 17.4419 21.6146 17.2161 21.6146 16.9402C21.6146 16.6643 21.3889 16.4385 21.1129 16.4385H14.8921C14.6162 16.4385 14.3904 16.6643 14.3904 16.9402C14.3904 17.2161 14.6162 17.4419 14.8921 17.4419Z" fill="#6A5AE6"/>
</svg>
