<svg width="36" height="37" viewBox="0 0 36 37" fill="none" xmlns="http://www.w3.org/2000/svg">
<path fill-rule="evenodd" clip-rule="evenodd" d="M8 0.027832C3.58172 0.027832 0 3.60955 0 8.02783V28.0278C0 32.4461 3.58172 36.0278 8 36.0278H28C32.4183 36.0278 36 32.4461 36 28.0278V8.02783C36 3.60955 32.4183 0.027832 28 0.027832H8ZM18.9092 7.86489L26.4124 11.9039C26.5099 11.9562 26.5703 12.0575 26.5703 12.1678C26.5703 12.278 26.5099 12.3795 26.4124 12.4319L25.4753 12.9364C25.4756 12.9388 25.4761 12.9412 25.4767 12.9435L25.4793 12.9534C25.4817 12.9621 25.4841 12.9707 25.4841 12.9801V15.9286C25.4841 16.0941 25.3497 16.2285 25.1842 16.2285C25.0187 16.2285 24.8843 16.0941 24.8843 15.9286V13.2547L23.4359 14.0344V14.6142C23.4359 14.7797 23.3015 14.9141 23.1359 14.9141C22.9704 14.9141 22.836 14.7797 22.836 14.6142V13.7668C22.836 13.4054 21.3997 12.7015 18.767 12.7015C16.1343 12.7015 14.6981 13.4054 14.6981 13.7668V14.6142C14.6981 14.7797 14.5637 14.9141 14.3981 14.9141C14.2326 14.9141 14.0982 14.7797 14.0982 14.6142V14.0319C14.0967 14.0312 14.0952 14.0309 14.0936 14.0306L14.0936 14.0306C14.0919 14.0302 14.0902 14.0299 14.0887 14.029L11.1213 12.4319C11.024 12.3799 10.9635 12.2781 10.9635 12.1679C10.9635 12.0576 11.0239 11.9562 11.1213 11.9039L18.625 7.86489C18.7136 7.81652 18.8205 7.81652 18.9092 7.86489ZM23.4357 16.2159C23.4357 14.0296 14.0981 14.0296 14.0981 16.2159C14.0981 17.309 16.4465 17.881 18.7669 17.881C21.0872 17.881 23.4357 17.309 23.4357 16.2159ZM24.6515 22.9556H26.183C26.3485 22.9556 26.4829 23.09 26.483 23.2556V27.9273C26.483 28.0928 26.3486 28.2272 26.183 28.2272H20.383H12.0656C10.6121 28.2272 9.4299 27.0448 9.4299 25.5913C9.4299 24.1378 10.6121 22.9556 12.0656 22.9556H12.1657C11.7263 22.5482 11.4467 21.971 11.4467 21.326C11.4467 20.0966 12.4468 19.0964 13.6762 19.0964H24.3515C24.5171 19.0964 24.6515 19.2308 24.6515 19.3964V22.9556ZM19.5224 27.716C19.4099 27.6035 19.2074 27.6035 19.095 27.716C19.0423 27.7687 19.0049 27.8511 19.0049 27.9262C19.0049 28.0086 19.0349 28.0837 19.095 28.1437C19.1551 28.196 19.2298 28.2261 19.3049 28.2261C19.3873 28.2261 19.4624 28.1961 19.5224 28.1437C19.5747 28.0836 19.6048 28.0085 19.6048 27.9262C19.6048 27.8885 19.5974 27.8511 19.5824 27.8134C19.5674 27.776 19.5451 27.746 19.5224 27.716ZM17.688 21.026H22.9999C23.1654 21.026 23.2998 21.1604 23.2998 21.326C23.2998 21.4915 23.1654 21.6259 22.9999 21.6259H17.688C17.5225 21.6259 17.3881 21.4915 17.3881 21.326C17.3881 21.1604 17.5225 21.026 17.688 21.026ZM18.7669 25.2913H12.6269C12.4614 25.2913 12.327 25.4257 12.327 25.5912C12.327 25.7567 12.4614 25.8911 12.6269 25.8911H18.7668C18.9323 25.8911 19.0667 25.7567 19.0667 25.5912C19.0667 25.4257 18.9324 25.2913 18.7669 25.2913Z" fill="#6A5AE6"/>
</svg>
