<svg width="18" height="22" viewBox="0 0 18 22" fill="none" xmlns="http://www.w3.org/2000/svg">
<path d="M17.4123 4.90387L9.90903 0.864895C9.82038 0.81652 9.7135 0.81652 9.62485 0.864895L2.12118 4.90387C2.02375 4.95622 1.96338 5.05762 1.96338 5.16787C1.96338 5.27812 2.02383 5.37989 2.12118 5.43194L5.08855 7.029C5.09155 7.03072 5.095 7.03034 5.09808 7.03192V7.61422C5.09808 7.77974 5.23248 7.91415 5.398 7.91415C5.56353 7.91415 5.69793 7.77974 5.69793 7.61422V6.76679C5.69793 6.40537 7.13418 5.70149 9.7669 5.70149C12.3996 5.70149 13.8359 6.40537 13.8359 6.76679V7.61422C13.8359 7.77974 13.9703 7.91415 14.1358 7.91415C14.3013 7.91415 14.4357 7.77974 14.4357 7.61422V7.0344L15.8841 6.25469V8.9286C15.8841 9.09412 16.0185 9.22852 16.1841 9.22852C16.3496 9.22852 16.484 9.09412 16.484 8.9286V5.98012C16.484 5.96459 16.4775 5.95124 16.4751 5.9364L17.4123 5.43187C17.5098 5.37952 17.5701 5.27804 17.5701 5.16779C17.5701 5.05754 17.5098 4.95622 17.4123 4.90387Z" fill="#5E69BE"/>
<path d="M14.4356 9.21586C14.4356 7.02961 5.0979 7.02961 5.0979 9.21586C5.0979 10.309 7.44637 10.881 9.76672 10.881C12.0871 10.881 14.4356 10.309 14.4356 9.21586Z" fill="#5E69BE"/>
<path fill-rule="evenodd" clip-rule="evenodd" d="M17.1829 15.9556H15.6514V12.3964C15.6514 12.2308 15.517 12.0964 15.3514 12.0964H4.67609C3.44669 12.0964 2.44656 13.0966 2.44656 14.326C2.44656 14.971 2.72623 15.5482 3.16558 15.9556H3.06546C1.61196 15.9556 0.42981 17.1378 0.42981 18.5913C0.42981 20.0448 1.61196 21.2272 3.06546 21.2272H11.3829H17.1829C17.3485 21.2272 17.4829 21.0928 17.4829 20.9273V16.2556C17.4828 16.09 17.3484 15.9556 17.1829 15.9556ZM10.0949 20.716C10.2073 20.6035 10.4098 20.6035 10.5223 20.716C10.545 20.746 10.5673 20.776 10.5823 20.8134C10.5973 20.8511 10.6047 20.8885 10.6047 20.9262C10.6047 21.0085 10.5746 21.0836 10.5223 21.1437C10.4623 21.1961 10.3872 21.2261 10.3048 21.2261C10.2297 21.2261 10.155 21.196 10.0949 21.1437C10.0348 21.0837 10.0048 21.0086 10.0048 20.9262C10.0048 20.8511 10.0422 20.7687 10.0949 20.716ZM13.9998 14.026H8.68791C8.52239 14.026 8.38799 14.1604 8.38799 14.326C8.38799 14.4915 8.52239 14.6259 8.68791 14.6259H13.9998C14.1653 14.6259 14.2997 14.4915 14.2997 14.326C14.2997 14.1604 14.1653 14.026 13.9998 14.026ZM3.62684 18.2913H9.76679C9.93231 18.2913 10.0666 18.4257 10.0666 18.5912C10.0666 18.7567 9.93224 18.8911 9.76671 18.8911H3.62684C3.46131 18.8911 3.32691 18.7567 3.32691 18.5912C3.32691 18.4257 3.46131 18.2913 3.62684 18.2913Z" fill="#5E69BE"/>
</svg>
