<svg width="12" height="20" viewBox="0 0 12 20" fill="none" xmlns="http://www.w3.org/2000/svg">
<path d="M7.92652 10.0042L0.444569 2.52195C0.238553 2.31642 0.125219 2.04163 0.125219 1.74862C0.125219 1.45545 0.238553 1.18081 0.444569 0.974959L1.10018 0.319675C1.30587 0.113496 1.58083 0 1.87384 0C2.16685 0 2.44148 0.113496 2.64733 0.319675L11.5558 9.22797C11.7625 9.43447 11.8756 9.71041 11.8748 10.0037C11.8756 10.2984 11.7626 10.574 11.5558 10.7807L2.65563 19.6803C2.44977 19.8865 2.17514 20 1.88197 20C1.58896 20 1.31433 19.8865 1.10831 19.6803L0.452862 19.025C0.0263577 18.5985 0.0263577 17.9042 0.452862 17.4779L7.92652 10.0042Z" fill="white"/>
</svg>
